# xmcd
#
# Track frame offsets:
#	150
#	26971
#	55735
#	68747
#	82459
#	111421
#	133745
#	185293
#
# Disc length: 3342 seconds
#
# Revision: 0
# Processed by: cddbd v1.5.1PL2 Copyright (c) Steve Scherf et al.
# Submitted via: EasyCDDAExtractor 9.0.0.1
#
DISCID=760d0c08
DTITLE=Celso Krause - Bossa ´n´dombe
DYEAR=2005
DGENRE=Fusion 
TTITLE0=Pulsar 
TTITLE1=Realejo (Passarinho vem) 
TTITLE2=Beba do blues 
TTITLE3=Vambê 
TTITLE4=Estourando pipoca 
TTITLE5=Bossa ´n´dombe 
TTITLE6=Arabesque 
TTITLE7=Estourando pipoca 2-Gran finale
EXTD=
EXTT0=
EXTT1=
EXTT2=
EXTT3=
EXTT4=
EXTT5=
EXTT6=
EXTT7=
PLAYORDER=
